<?xml version="1.0" encoding="utf-8"?>
<!-- Generator: Adobe Illustrator 28.3.0, SVG Export Plug-In . SVG Version: 6.00 Build 0)  -->
<svg version="1.1" id="Ebene_1" xmlns="http://www.w3.org/2000/svg" xmlns:xlink="http://www.w3.org/1999/xlink" x="0px" y="0px"
	 viewBox="0 0 1366 768" style="enable-background:new 0 0 1366 768;" xml:space="preserve">
<style type="text/css">
	.st0{display:none;}
	.st1{opacity:0.8;fill:none;stroke:#A9D9D0;stroke-miterlimit:10;enable-background:new    ;}
	.st2{fill:none;stroke:#A9D9D0;stroke-miterlimit:10;}
	.st3{opacity:0.4;fill:#F2E7DC;enable-background:new    ;}
	.st4{opacity:0.8;fill:#A9D9D0;enable-background:new    ;}
	.st5{fill:#FFFFFF;}
	.st6{fill:#0D0D0D;}
	.st7{fill:none;}
	.st8{fill:#A9D9D0;}
	.st9{font-family:'Roboto-Regular';}
	.st10{font-size:45.5282px;}
	.st11{font-size:24.2818px;}
	.st12{opacity:0.8;fill:none;stroke:#A9D9D0;stroke-width:2;stroke-miterlimit:10;enable-background:new    ;}
	.st13{opacity:0.8;}
	.st14{enable-background:new    ;}
</style>
<g id="Ebene_1_00000023277858880316318820000016649335135119398571_" class="st0">
	
		<image style="display:inline;overflow:visible;enable-background:new    ;" width="1050" height="720" xlink:href="94723343810339D6.png"  transform="matrix(0.9361 0 0 0.9361 189 51)">
	</image>
</g>
<g id="Ebene_2_00000169549014255954496810000000427433635505187260_">
	<path class="st1" d="M642.2,125.8"/>
	<path class="st1" d="M444.5,515.9L674.5,225c0,0,46.4-57.9-19.1-99.7"/>
	<path class="st1" d="M460.8,516.1l225.1-294.3c0,0,57.7-83.6,165.4-63.5l38.8,12l356.2,117.1l120.2-8.3"/>
	<path class="st1" d="M107.3,709.2"/>
	<path class="st1" d="M601.9,125.3l36.7,67.7c0,0,15.9,30.1,15.8,33.4c0,3.3-11.6,19.9-11.6,19.9l-202,257.1l-7.7,11.6"/>
	<polygon class="st1" points="582.3,176.8 602.8,150.3 624.7,195.4 	"/>
	<polygon class="st1" points="551.6,219.8 579.7,183.4 629.6,204.6 640.6,226.4 627.8,246.2 	"/>
	<polygon class="st1" points="504.2,283.4 546.4,229.7 621.4,256.1 580.5,309.1 	"/>
	<polygon class="st1" points="483.7,313.2 494,300 568.9,324.8 557.4,338.8 	"/>
	<polygon class="st1" points="469.7,331.4 478.6,319.8 553.6,344.6 544.6,356.2 	"/>
	<path class="st1" d="M450.7,342.1l11.4-4.9l78.7,26.5l-10.2,14.9c0,0-41.5,3-47.8,6.2L450.7,342.1z"/>
	<polygon class="st1" points="439.3,347 470,393.8 387,404.8 	"/>
	<polygon class="st1" points="429.9,478.4 469.2,452.1 451,407 374.3,417.1 	"/>
	<polygon class="st1" points="460.8,405.9 479.4,446.1 519,394.7 	"/>
	<polyline class="st1" points="286,514.3 250.2,491.8 364.2,422.9 421.1,483.3 376,515.1 	"/>
	<path class="st1" d="M667,223.3c0,0,44.8-58.7-23.8-94.2l-6.8-3.2"/>
	<polygon class="st1" points="264.8,439.5 313.2,385.8 360.6,406.2 283.4,452.1 	"/>
	<polygon class="st1" points="297.1,372.4 299.8,355.7 377.2,389.7 367,400.4 	"/>
	<polyline class="st1" points="126.2,513.6 205.2,475.6 222.7,486.6 176.5,513.2 	"/>
	<path class="st1" d="M113.7,513.5l82.8-40.5c0,0-86.9,18.4-125.8,14.7s-41.2-17.8-41.2-17.8s-16.9-2.2-24.4-5.6"/>
	<path class="st1" d="M10.2,506.4"/>
	<path class="st1" d="M5.2,456.8l29.4,7.3c0,0,34.1-17.2,46.8-25.4s39.3-24.6,39.3-24.6l-16.3-0.1l-24.9-17.7l-42.5-16.2l-33.3,0.1"
		/>
	<polygon class="st1" points="214.1,469 232.8,480.8 277.1,456.2 259.7,444.4 	"/>
	<polygon class="st1" points="381,384.7 401.4,363.3 389,353.2 345.1,352.8 296.3,339.9 298.6,350.7 	"/>
	<polygon class="st1" points="407.8,358.3 430.7,334.4 419.6,316 395.3,348.2 	"/>
	<polygon class="st1" points="428.5,310.2 444.9,307.1 463.6,314.7 457.2,320.5 442.1,327.8 	"/>
	<polygon class="st1" points="649.3,140.7 635,177.2 614.2,139.6 	"/>
	<path class="st1" d="M638.7,184.7l18.1-39.8c0,0,29.6,36,1.4,77.4L638.7,184.7z"/>
	<polygon class="st1" points="453.6,134.1 525.2,217.9 556,175.7 	"/>
	<polyline class="st1" points="595.6,125.1 584.1,140.2 561.1,169.9 444.9,124 	"/>
	<polyline class="st1" points="401,124.4 383,155.1 276.7,122.5 	"/>
	<polygon class="st1" points="444.8,134.8 425.4,172.1 390.5,159.3 413.5,123.7 	"/>
	<polygon class="st1" points="434.2,175.5 449.7,143.2 467,164.9 455.4,184 	"/>
	<polygon class="st1" points="462.9,187.4 471.9,171.6 494.1,198.5 	"/>
	<polygon class="st1" points="459,197.3 443.5,225.5 509.8,243.5 522.7,222.9 	"/>
	<polygon class="st1" points="404.8,212.7 425.3,184.6 451.5,194.8 433.5,221.2 	"/>
	<polygon class="st1" points="392.3,208.4 415.3,181.1 382.8,169.2 362.3,198.2 	"/>
	<polygon class="st1" points="351,194.7 372.8,166.6 332.8,153.8 311,181.1 	"/>
	<polygon class="st1" points="428.1,250.3 440.9,232.1 506,250.2 479.1,287.4 416.5,269.4 	"/>
	<polygon class="st1" points="402.7,270.9 414.2,254.4 380.5,243.3 367.7,262.3 	"/>
	<polygon class="st1" points="419.4,246.9 432.2,228.7 398.4,219.3 385.6,235.8 	"/>
	<polygon class="st1" points="330.4,237.8 338,227.9 370.5,239 364.1,248.9 	"/>
	<polygon class="st1" points="322.6,251.1 326.5,245.3 360.2,256.4 356.4,262.2 	"/>
	<polygon class="st1" points="343.1,221.3 357.2,204.8 389.6,216.7 375.6,233.2 	"/>
	<polygon class="st1" points="270.1,237.3 276.5,228.2 317.7,243.6 313.9,250.2 	"/>
	<polygon class="st1" points="280.3,222.4 289.3,211.7 329.2,227 322.8,236.9 	"/>
	<polygon class="st1" points="293.1,205.1 305.9,189.4 347.2,203 335.6,219.6 	"/>
	<polygon class="st1" points="299.8,177.7 324.1,148.7 233.4,121.8 211.1,149.4 	"/>
	<polygon class="st1" points="270.3,220.7 295.9,185.9 204.7,156.9 181.6,188.3 	"/>
	<polygon class="st1" points="116.6,167.8 142.2,135.5 194.7,153.5 169.1,185.7 	"/>
	<polyline class="st1" points="223.4,121.7 201.1,146.9 147.3,130.6 109.8,119.4 	"/>
	<polyline class="st1" points="61.2,120.6 45.4,143.9 107.9,165.2 134.7,133.8 94.7,120.9 	"/>
	<path class="st1" d="M366.8,168.7"/>
	<path class="st1" d="M793,190.2L777,171.8c0,0-43,20.4-53.1,28.7C723.8,200.4,770.5,184.2,793,190.2z"/>
	<path class="st1" d="M913,185.4l-5.9,16.6c0,0-74-9-90.2-10.8L792,164.2C792.1,164.2,843.7,154.8,913,185.4z"/>
	<polygon class="st1" points="749.5,253.9 803,196.1 838.6,253.9 	"/>
	<polygon class="st1" points="713.8,293.6 741.8,262.2 839.7,263 846.8,296.4 	"/>
	<polygon class="st1" points="728,261.2 697.4,294.2 658.5,293.9 687.8,260.9 	"/>
	<polygon class="st1" points="852.3,259.8 861.9,297.3 892,296.8 895,260.2 	"/>
	<polygon class="st1" points="851.2,253.1 897.6,252.7 904.5,207.8 821.8,199.6 	"/>
	<polygon class="st1" points="907.7,252.8 914.6,209.6 991,222.7 986.8,254.3 	"/>
	<polygon class="st1" points="902,296 978.7,295 986.7,259.3 905.1,259.4 	"/>
	<polygon class="st1" points="994.2,260.2 987.5,294.2 1081.6,294.2 1085.7,268.5 	"/>
	<polygon class="st1" points="994.3,254.4 1001,224.5 1085.9,254.3 1084.6,261.8 	"/>
	<polygon class="st1" points="1094.5,270.2 1097.6,315.2 1136.6,313 1147,284.8 	"/>
	<polygon class="st1" points="1094.6,263.5 1094.7,255.2 1151,273.2 1150.9,278.2 	"/>
	<polygon class="st1" points="1146.7,312.3 1157,287.4 1214.6,299.5 1244.7,305.6 	"/>
	<polygon class="st1" points="1158.4,280.7 1159.7,274.9 1217.2,291.2 1247.3,300.6 	"/>
	<polygon class="st1" points="949.7,299.8 954.3,332.2 1086.3,316.7 1081.6,298.4 	"/>
	<polygon class="st1" points="863,302.3 870,341.5 940.4,334.6 934.6,301.3 865.5,302.4 	"/>
	<polygon class="st1" points="848,303.9 854.9,343.9 700.3,360.9 686,300 	"/>
	<polygon class="st1" points="676,299.9 690.2,362.4 604.7,371.7 603.5,364.2 657.2,298.9 	"/>
	<polygon class="st1" points="558.7,431.2 599.5,381.6 693.8,370.8 708.1,425.8 	"/>
	<polygon class="st1" points="702.7,368.4 718.2,425.1 869,413.9 856.1,350.5 	"/>
	<polygon class="st1" points="869.9,348.2 881.6,411.5 918,409.3 941.6,343.8 	"/>
	<polygon class="st1" points="957.9,342.3 955.2,358.9 1097,358.4 1090,324.2 	"/>
	<polygon class="st1" points="938.3,393.7 950,368 1098.2,365.9 1100.2,400.1 	"/>
	<polygon class="st1" points="1098.8,322.7 1107.1,356.9 1153.6,356.4 1139,318.9 	"/>
	<polygon class="st1" points="1108.2,365.2 1112.8,400.2 1166.8,399.8 1154.7,363.9 	"/>
	<polygon class="st1" points="1164.8,362.3 1179.3,399.9 1248.4,399.7 1247.7,358.9 	"/>
	<polygon class="st1" points="1146.6,318.1 1161.1,355.6 1246.5,353.1 1247.1,309.8 	"/>
	<polygon class="st1" points="855.5,481.2 861.1,443 853.8,420.4 750.8,429.5 740.6,440.2 840.4,483.5 	"/>
	<polyline class="st1" points="917.5,520 865,453 861.8,480.4 890.3,519.8 	"/>
	<polyline class="st1" points="494.7,516.4 549.5,454.4 586.9,478.9 512.3,516.5 	"/>
	<path class="st1" d="M553.4,450.3l37.3,22.8c0,0,5.2-10.8,24-11.4l-14.7-29.2l-23.9,1.5L553.4,450.3z"/>
	<polygon class="st1" points="606.4,431.6 619.8,460.8 714,456.7 708.1,429.1 	"/>
	<polygon class="st1" points="735.5,446.9 725.3,457.6 775.1,487.1 792.9,469 	"/>
	<polygon class="st1" points="797.9,471.5 835.3,487.7 815,507.5 778.8,489.7 	"/>
	<polyline class="st1" points="838.7,519.3 820,510 840.3,490.2 857.9,487 885.1,519.7 	"/>
	<polyline class="st1" points="818.8,519.1 813.6,515.8 777.5,495.5 777.5,492.2 831.5,519.5 	"/>
	<path class="st1" d="M827.5,519"/>
	<polyline class="st1" points="803.5,519 776.1,501.3 776,513.8 783.4,518.8 	"/>
	<polyline class="st1" points="709.4,517.4 717.2,494 726.3,464.9 766.2,489.4 767.1,517.9 	"/>
	<path class="st1" d="M767.7,517.9"/>
	<path class="st1" d="M618.4,468.3c10,0.1,49-1.2,49-1.2l17.7-4.8l35.1,1.1l-17,46.5l-83.8-20.7l-21.2-11.8
		C598.2,477.3,598.3,468.1,618.4,468.3z"/>
	<path class="st1" d="M414,274.3c0,0-4,14.9,8.4,30l22.7-4.8l27.4,9.7l11.2-15.3L414,274.3z"/>
	<path class="st1" d="M386.6,344l26.9-34.7c0,0-14.8-20.1-12.1-31.7L345,265.4l-44.9,67.9l47.5,12.1L386.6,344z"/>
	<polygon class="st1" points="291.4,331.5 336.2,264.5 262.5,242.2 237,270.3 262.7,319.6 	"/>
	<polygon class="st1" points="288.4,368.1 287.5,337.3 257.6,325.4 228.2,271.9 156.6,272.1 171.1,313 	"/>
	<path class="st1" d="M155.4,268.8l70.3-1.9c0,0-7.4-11.7-29.9-17.7c-22.5-6-38.8-9.5-38.8-9.5l-31.5,9.7L155.4,268.8z"/>
	<path class="st1" d="M233.3,263.6l23-24.8l-31.1-23.6l-21.7,27.3C203.5,242.6,231,252,233.3,263.6z"/>
	<polygon class="st1" points="239,217.9 258.8,235.6 266.5,225.6 	"/>
	<path class="st1" d="M149.8,223.8"/>
	<polygon class="st1" points="169,196.5 219,212.8 196,240.8 160.9,231.4 121.9,241.9 	"/>
	<polygon class="st1" points="257.3,436.1 304.5,382.4 230.8,350.1 174.8,408.8 	"/>
	<path class="st1" d="M253.4,441l-46.8,24.6c0,0-88.1,18.4-127,15.5c0,0-33.9-0.3-38.8-12l112.6-60.6L253.4,441z"/>
	<polygon class="st1" points="164.8,405.3 223.4,345.9 167.2,320.5 102.3,381.5 	"/>
	<polygon class="st1" points="145.9,406 128.3,410.9 107,409.8 84.6,394.7 98.5,385.6 	"/>
	<polygon class="st1" points="79.6,391.3 163.5,316.3 149.1,272.9 40.9,376.8 	"/>
	<polyline class="st1" points="2.1,185.1 120.5,252.7 145.3,270.4 33.3,376.8 3.2,375.7 	"/>
	<polygon class="st1" points="33.8,162.9 81.9,224.1 114.3,241 162.7,194 41.5,152.1 	"/>
	<polygon class="st1" points="15.9,185.2 28.8,167.8 68.2,216.4 	"/>
	<polygon class="st1" points="914.6,203.8 992.3,217.7 992.1,211.3 919.1,187.2 	"/>
	<polygon class="st1" points="1002.3,221.1 1002.3,214.5 1088.5,243.3 1087.3,250.2 	"/>
	<polygon class="st1" points="1096,252.7 1096.7,245.7 1152.6,264.8 1152.3,269.9 	"/>
	<polygon class="st1" points="1161,272.4 1161.1,266.6 1246.1,294 	"/>
	<path class="st1" d="M723.8,200.4c0,0-30.6,32.2-43.3,47.1c-12.8,14.9-207.2,268.7-207.2,268.7"/>
	<path class="st1" d="M738.2,253.8l-45.2-0.4l39.6-48.8c0,0,31.6-12.2,60.4-8.6L738.2,253.8z"/>
	<path class="st1" d="M629.5,125.8c7.5,3.6,18.7,11.6,18.7,11.6l-35.1-1.1l-6-10.8"/>
	<path class="st1" d="M270.5,514"/>
	<polyline class="st1" points="270.5,514 242.6,496.7 212.6,513.9 	"/>
	<path class="st1" d="M885.1,519.7"/>
	<path class="st1" d="M838.7,519.3"/>
	<polyline class="st1" points="701.5,517.8 702.5,513.6 616.8,493.3 591.2,480.1 521,516.4 	"/>
	<line class="st1" x1="1246.1" y1="294" x2="1366.4" y2="284.4"/>
	<line class="st1" x1="1247.3" y1="300.6" x2="1366.5" y2="291.3"/>
	<line class="st1" x1="1244.7" y1="305.6" x2="1366.9" y2="296.3"/>
	<path class="st1" d="M669.7,125.9c47.9,30.7,21.5,80.1,21.5,80.1s38.4-52.1,108.8-55.6c0,0,37.7-3,60.2,3L1246.3,279l119.7-7.9"/>
	<polyline class="st1" points="383,515.4 424.8,485.8 437.2,498.4 423.1,514.9 	"/>
	<polygon class="st2" points="926.1,168.8 935.2,136.4 1010.5,157.9 998.1,190.2 	"/>
	<polygon class="st2" points="1005.2,192.3 1017.6,160 1099.4,185.6 1091.4,220.3 	"/>
	<polygon class="st2" points="1097.9,223.6 1107.1,187.2 1173.6,206.2 1160.1,244.2 	"/>
	<polygon class="st2" points="1165.5,245.9 1180.2,207.9 1255.4,233.4 1245.1,273 	"/>
	<polyline class="st2" points="1364.5,266.4 1251.7,273.1 1260.9,233.5 1363.8,230 	"/>
	<polyline class="st2" points="1260.2,129 1256.6,228.6 1181.3,204.7 1187.2,128.4 	"/>
	<polyline class="st2" points="1109.2,128.1 1107.1,184 1174.8,202.2 1180.7,128.6 	"/>
	<polyline class="st2" points="1020.2,127.8 1018.7,156 1099.4,182.3 1102.4,128.1 	"/>
	<polyline class="st2" points="936.5,127.1 935.8,132.8 1011.1,154.3 1013,127.6 	"/>
	<polygon class="st2" points="919,166.7 930.3,136 886.2,127 874.3,152.7 	"/>
	<polyline class="st2" points="932.1,127.4 931.4,132.8 899.6,126.9 	"/>
	<path class="st2" d="M792.6,126.3l0.8,20.3c0,0,47.1-5.4,73.3,5.3l10-24.8"/>
	<path class="st2" d="M681.2,126.2c0,0,32.3,15.8,24.2,53c0,0,28.8-29.8,79.2-31.9l-0.4-20.9"/>
	<polyline class="st1" points="3,120.2 40.4,143 55.1,120.5 	"/>
	<polyline class="st1" points="2.7,145.1 30.1,159.5 37.8,151.3 2.9,129.6 	"/>
	<polyline class="st1" points="2.6,149.8 26.3,164.5 12.2,183.5 2,177.2 	"/>
	<polyline class="st1" points="1364.8,401.4 1252.8,400.1 1252.1,358.5 1365.5,354 	"/>
	<polyline class="st1" points="1365.1,348.3 1252.2,352.7 1254,309.4 1366.2,300.4 	"/>
	<polygon class="st2" points="859.5,420.4 865.5,441.1 913.5,437.4 917.5,416 	"/>
	<polygon class="st2" points="936.5,398.2 931.5,409.3 1101.5,416 1101.5,404.1 	"/>
	<polygon class="st2" points="1113.5,404.1 1167.5,404.1 1172.5,415.2 1115.5,416 	"/>
	<polyline class="st2" points="1365.5,406.4 1180.5,404.1 1185.5,413.8 1365.5,416 	"/>
	<polygon class="st2" points="1049.5,439.6 921.5,438.2 928.5,415.2 1100.5,421.9 1100.5,425.6 	"/>
	<polygon class="st2" points="866.5,445.6 896.5,484 923.5,478.8 913.5,441.9 	"/>
</g>
<g id="Ebene_4">
</g>
<g id="Ebene_3">
</g>
<g id="Ebene_5">
	<circle class="st3" cx="594.4" cy="322.9" r="189.6"/>
	<path class="st4" d="M595.5,335.4l17.8-36.5c0,0,12.2-24.6-17.1-27.7c0,0-28.4,0.6-16.8,30L595.5,335.4z"/>
	
		<ellipse transform="matrix(1.090044e-02 -0.9999 0.9999 1.090044e-02 296.6848 884.6718)" class="st5" cx="595.5" cy="292.4" rx="6.4" ry="6.9"/>
	<path class="st6" d="M578.7,461.7l8.9-18.4c0,0,6.1-12.4-8.7-13.9c0,0-14.3,0.4-8.4,15.2L578.7,461.7z"/>
	
		<ellipse transform="matrix(1.090044e-02 -0.9999 0.9999 1.090044e-02 132.2331 1013.8073)" class="st5" cx="578.6" cy="440.1" rx="3.2" ry="3.5"/>
	<path class="st6" d="M592,437l8.9-18.4c0,0,6.1-12.4-8.7-13.9c0,0-14.3,0.4-8.4,15.2L592,437z"/>
	
		<ellipse transform="matrix(1.090044e-02 -0.9999 0.9999 1.090044e-02 170.2227 1002.6801)" class="st5" cx="591.9" cy="415.3" rx="3.2" ry="3.5"/>
	<path class="st6" d="M492.5,352.6l8.9-18.4c0,0,6.1-12.4-8.7-13.9c0,0-14.3,0.4-8.4,15.2L492.5,352.6z"/>
	
		<ellipse transform="matrix(1.090044e-02 -0.9999 0.9999 1.090044e-02 156.083 819.6725)" class="st5" cx="492.4" cy="330.9" rx="3.2" ry="3.5"/>
	<path class="st6" d="M471.3,343.3l8.9-18.4c0,0,6.1-12.4-8.7-13.9c0,0-14.3,0.4-8.4,15.2L471.3,343.3z"/>
	
		<ellipse transform="matrix(1.090044e-02 -0.9999 0.9999 1.090044e-02 144.4127 789.3394)" class="st5" cx="471.2" cy="321.7" rx="3.2" ry="3.5"/>
	<path class="st6" d="M622.4,229.2l8.9-18.4c0,0,6.1-12.4-8.7-13.9c0,0-14.3,0.4-8.4,15.2L622.4,229.2z"/>
	
		<ellipse transform="matrix(1.090044e-02 -0.9999 0.9999 1.090044e-02 408.0327 827.597)" class="st5" cx="622.4" cy="207.5" rx="3.2" ry="3.5"/>
	<path class="st6" d="M637.8,205.1l8.9-18.4c0,0,6.1-12.4-8.7-13.9c0,0-14.3,0.4-8.4,15.2L637.8,205.1z"/>
	
		<ellipse transform="matrix(1.090044e-02 -0.9999 0.9999 1.090044e-02 447.3923 819.0677)" class="st5" cx="637.7" cy="183.4" rx="3.2" ry="3.5"/>
	<path class="st6" d="M672.1,282.7l8.9-18.4c0,0,6.1-12.4-8.7-13.9c0,0-14.3,0.4-8.4,15.2L672.1,282.7z"/>
	
		<ellipse transform="matrix(1.090044e-02 -0.9999 0.9999 1.090044e-02 403.638 930.1691)" class="st5" cx="672" cy="261.1" rx="3.2" ry="3.5"/>
	<path class="st6" d="M733.5,381.9l8.9-18.4c0,0,6.1-12.4-8.7-13.9c0,0-14.3,0.4-8.4,15.2L733.5,381.9z"/>
	
		<ellipse transform="matrix(1.090044e-02 -0.9999 0.9999 1.090044e-02 365.2718 1089.6565)" class="st5" cx="733.4" cy="360.2" rx="3.2" ry="3.5"/>
	<path class="st6" d="M686.4,390.6l8.9-18.4c0,0,6.1-12.4-8.7-13.9c0,0-14.3,0.4-8.4,15.2L686.4,390.6z"/>
	
		<ellipse transform="matrix(1.090044e-02 -0.9999 0.9999 1.090044e-02 309.9471 1051.1722)" class="st5" cx="686.3" cy="368.9" rx="3.2" ry="3.5"/>
	<path class="st6" d="M516.1,242l8.9-18.4c0,0,6.1-12.4-8.7-13.9c0,0-14.3,0.4-8.4,15.2L516.1,242z"/>
	
		<ellipse transform="matrix(1.090044e-02 -0.9999 0.9999 1.090044e-02 290.0539 733.9319)" class="st5" cx="516" cy="220.3" rx="3.2" ry="3.5"/>
	<path class="st6" d="M531.1,264.9l8.9-18.4c0,0,6.1-12.4-8.7-13.9c0,0-14.3,0.4-8.4,15.2L531.1,264.9z"/>
	
		<ellipse transform="matrix(1.090044e-02 -0.9999 0.9999 1.090044e-02 282.0035 771.5684)" class="st5" cx="531" cy="243.2" rx="3.2" ry="3.5"/>
	
		<rect x="664.2" y="266.3" transform="matrix(7.955195e-03 -1 1 7.955195e-03 393.595 1043.3201)" class="st7" width="116.9" height="114"/>
	<text transform="matrix(1 7.955195e-03 -7.955195e-03 1 665.813 298.5782)" class="st8 st9 st10"> </text>
	<text transform="matrix(1 7.955195e-03 -7.955195e-03 1 665.5812 327.7184)" class="st8 st9 st11">500m</text>
	<line class="st12" x1="777.8" y1="335.6" x2="606.5" y2="335.4"/>
	<polyline class="st12" points="772,329 779.5,335.1 773.4,341.2 	"/>
	
		<rect x="592.5" y="333.6" transform="matrix(7.955195e-03 -1 1 7.955195e-03 243.7427 955.2874)" class="st7" width="21.6" height="42.5"/>
	<text transform="matrix(1 7.955195e-03 -7.955195e-03 1 582.0192 362.0655)" class="st4 st9 st11">du</text>
	<line class="st12" x1="440.6" y1="427.5" x2="587.3" y2="339"/>
	<polyline class="st12" points="449,430.1 439.4,428.8 441.5,420.5 	"/>
	<path class="st6" d="M507.1,424.6l8.9-18.4c0,0,6.1-12.4-8.7-13.9c0,0-14.3,0.4-8.4,15.2L507.1,424.6z"/>
	
		<ellipse transform="matrix(1.090044e-02 -0.9999 0.9999 1.090044e-02 98.5362 905.5601)" class="st5" cx="507" cy="403" rx="3.2" ry="3.5"/>
	<path class="st6" d="M690.6,248.5l8.9-18.4c0,0,6.1-12.4-8.7-13.9c0,0-14.3,0.4-8.4,15.2L690.6,248.5z"/>
	
		<ellipse transform="matrix(1.090044e-02 -0.9999 0.9999 1.090044e-02 456.1279 914.9011)" class="st5" cx="690.5" cy="226.9" rx="3.2" ry="3.5"/>
	<path class="st6" d="M644.5,325.6l8.9-18.4c0,0,6.1-12.4-8.7-13.9c0,0-14.3,0.4-8.4,15.2L644.5,325.6z"/>
	
		<ellipse transform="matrix(1.090044e-02 -0.9999 0.9999 1.090044e-02 333.4649 944.9464)" class="st5" cx="644.4" cy="303.9" rx="3.2" ry="3.5"/>
	<path class="st6" d="M453.5,287.6l8.9-18.4c0,0,6.1-12.4-8.7-13.9c0,0-14.3,0.4-8.4,15.2L453.5,287.6z"/>
	
		<ellipse transform="matrix(1.090044e-02 -0.9999 0.9999 1.090044e-02 182.5892 716.5065)" class="st5" cx="453.5" cy="266" rx="3.2" ry="3.5"/>
	<path class="st6" d="M499.3,259.2l8.9-18.4c0,0,6.1-12.4-8.7-13.9c0,0-14.3,0.4-8.4,15.2L499.3,259.2z"/>
	
		<ellipse transform="matrix(1.090044e-02 -0.9999 0.9999 1.090044e-02 256.3075 734.1061)" class="st5" cx="499.2" cy="237.5" rx="3.2" ry="3.5"/>
	<path class="st6" d="M559.7,493.4l8.9-18.4c0,0,6.1-12.4-8.7-13.9c0,0-14.3,0.4-8.4,15.2L559.7,493.4z"/>
	
		<ellipse transform="matrix(1.090044e-02 -0.9999 0.9999 1.090044e-02 81.8215 1026.0841)" class="st5" cx="559.6" cy="471.7" rx="3.2" ry="3.5"/>
	<g class="st13">
		<path class="st8" d="M458.8,393.3l-3.4-8l7.7-4.3l1,1.8l-6.1,3.4l1.8,4.4c0.5-0.9,1.2-1.5,2.2-2c1.4-0.8,2.7-0.9,4-0.5
			s2.4,1.5,3.2,3c0.9,1.6,1.1,3,0.8,4.4c-0.3,1.4-1.3,2.5-2.8,3.3c-1.3,0.7-2.6,1-3.9,0.7s-2.3-1-3.1-2.3l1.8-1
			c0.6,0.8,1.3,1.3,2,1.4c0.7,0.2,1.5,0,2.3-0.4c0.9-0.5,1.4-1.2,1.6-2.1s0-1.9-0.6-2.9c-0.6-1-1.3-1.7-2.2-2s-1.8-0.2-2.7,0.3
			c-0.8,0.5-1.4,1-1.7,1.6l-0.3,0.7L458.8,393.3z"/>
		<path class="st8" d="M480,383c1.2,2.2,1.8,4.1,1.6,5.6s-1.1,2.7-2.7,3.6c-1.6,0.9-3.1,1-4.5,0.4c-1.4-0.6-2.6-2-3.9-4.1l-1.4-2.6
			c-1.2-2.2-1.8-4.1-1.6-5.6c0.2-1.5,1.1-2.7,2.7-3.6c1.6-0.9,3.1-1,4.5-0.4c1.3,0.6,2.6,2,3.9,4.2L480,383z M476.6,381.5
			c-0.9-1.6-1.8-2.7-2.6-3.2c-0.9-0.5-1.8-0.5-2.8,0.1c-1,0.5-1.5,1.3-1.5,2.3s0.4,2.2,1.2,3.8l1.7,3.1c0.9,1.6,1.8,2.7,2.7,3.2
			c0.9,0.5,1.8,0.5,2.8,0c1-0.5,1.5-1.3,1.5-2.3s-0.3-2.3-1.2-3.9L476.6,381.5z"/>
		<path class="st8" d="M491.9,376.4c1.2,2.2,1.8,4.1,1.6,5.6s-1.1,2.7-2.7,3.6c-1.6,0.9-3.1,1-4.5,0.4c-1.4-0.6-2.6-2-3.9-4.1
			l-1.4-2.6c-1.2-2.2-1.8-4.1-1.6-5.6c0.2-1.5,1.1-2.7,2.7-3.6c1.6-0.9,3.1-1,4.5-0.4c1.3,0.6,2.6,2,3.9,4.2L491.9,376.4z
			 M488.5,374.9c-0.9-1.6-1.8-2.7-2.6-3.2c-0.9-0.5-1.8-0.5-2.8,0.1c-1,0.5-1.5,1.3-1.5,2.3s0.4,2.2,1.2,3.8l1.7,3.1
			c0.9,1.6,1.8,2.7,2.7,3.2c0.9,0.5,1.8,0.5,2.8,0c1-0.5,1.5-1.3,1.5-2.3s-0.3-2.3-1.2-3.9L488.5,374.9z"/>
		<path class="st8" d="M493.7,369.2l0.7,1.2c0.3-1.4,1.1-2.5,2.5-3.3c1.6-0.9,3-0.9,4.2,0c0.1-0.8,0.3-1.5,0.7-2.1
			c0.4-0.7,1-1.2,1.9-1.7c2.5-1.4,4.4-0.8,5.9,1.8l4.2,7.5l-1.9,1.1l-4.1-7.4c-0.4-0.8-1-1.3-1.5-1.5s-1.3,0-2.2,0.4
			c-0.7,0.4-1.2,0.9-1.4,1.6c-0.2,0.7-0.2,1.4,0.1,2.2l4.1,7.5l-1.9,1.1l-4.1-7.4c-0.9-1.6-2.1-2-3.8-1.1c-1.3,0.7-1.8,1.7-1.7,3
			l4.5,8.2l-1.9,1.1l-6.2-11.2L493.7,369.2z"/>
	</g>
	<rect x="868" y="427" class="st7" width="486" height="142"/>
	<g class="st14">
		<path class="st6" d="M1156.9,444.7h-11.2v7.6h13.2v4.7h-19.1v-28.4h19v4.7h-13.2v6.8h11.2V444.7z"/>
		<path class="st6" d="M1172.9,447.1h-11v-4.6h11V447.1z"/>
		<path class="st6" d="M1192.5,449.5c0-1.1-0.4-2-1.2-2.5s-2.2-1.2-4.2-1.9s-3.6-1.3-4.8-1.9c-3.2-1.7-4.8-4.1-4.8-7.1
			c0-1.5,0.4-2.9,1.3-4.1s2.1-2.1,3.7-2.8s3.4-1,5.5-1c2,0,3.8,0.4,5.4,1.1s2.8,1.8,3.7,3.1s1.3,2.9,1.3,4.6h-5.9
			c0-1.3-0.4-2.3-1.2-3s-2-1.1-3.5-1.1c-1.4,0-2.5,0.3-3.3,0.9s-1.2,1.4-1.2,2.4c0,0.9,0.5,1.7,1.4,2.3s2.3,1.2,4.1,1.8
			c3.3,1,5.8,2.2,7.3,3.7s2.3,3.3,2.3,5.5c0,2.5-0.9,4.4-2.8,5.8s-4.4,2.1-7.5,2.1c-2.2,0-4.2-0.4-6-1.2s-3.2-1.9-4.1-3.3
			s-1.4-3-1.4-4.8h5.9c0,3.1,1.9,4.7,5.6,4.7c1.4,0,2.5-0.3,3.3-0.8S1192.5,450.5,1192.5,449.5z"/>
		<path class="st6" d="M1224.7,447.5c-0.2,3.1-1.4,5.5-3.4,7.2s-4.7,2.6-8.1,2.6c-3.6,0-6.5-1.2-8.6-3.7s-3.1-5.8-3.1-10.1v-1.7
			c0-2.7,0.5-5.1,1.4-7.2s2.3-3.7,4.1-4.8s3.9-1.7,6.2-1.7c3.3,0,5.9,0.9,7.9,2.6s3.2,4.2,3.5,7.4h-5.9c-0.1-1.8-0.7-3.2-1.5-4
			s-2.2-1.2-4-1.2c-2,0-3.4,0.7-4.4,2.1s-1.5,3.6-1.5,6.5v2.1c0,3.1,0.5,5.3,1.4,6.7s2.4,2.1,4.4,2.1c1.8,0,3.2-0.4,4.1-1.2
			s1.4-2.1,1.5-3.8H1224.7z"/>
		<path class="st6" d="M1251.9,443.4c0,2.8-0.5,5.3-1.5,7.4s-2.4,3.7-4.2,4.9s-4,1.7-6.3,1.7c-2.4,0-4.5-0.6-6.3-1.7
			s-3.3-2.8-4.3-4.9s-1.5-4.5-1.5-7.3v-1.4c0-2.8,0.5-5.3,1.5-7.4s2.4-3.8,4.3-4.9s3.9-1.7,6.3-1.7s4.5,0.6,6.3,1.7s3.3,2.8,4.3,4.9
			s1.5,4.6,1.5,7.4V443.4z M1246,442.1c0-3-0.5-5.2-1.6-6.8s-2.6-2.3-4.6-2.3c-2,0-3.5,0.8-4.6,2.3s-1.6,3.8-1.6,6.7v1.4
			c0,2.9,0.5,5.2,1.6,6.8s2.6,2.4,4.6,2.4c2,0,3.5-0.8,4.5-2.3s1.6-3.8,1.6-6.7V442.1z"/>
		<path class="st6" d="M1279.5,443.4c0,2.8-0.5,5.3-1.5,7.4s-2.4,3.7-4.2,4.9s-4,1.7-6.3,1.7c-2.4,0-4.5-0.6-6.3-1.7
			s-3.3-2.8-4.3-4.9s-1.5-4.5-1.5-7.3v-1.4c0-2.8,0.5-5.3,1.5-7.4s2.4-3.8,4.3-4.9s3.9-1.7,6.3-1.7s4.5,0.6,6.3,1.7s3.3,2.8,4.3,4.9
			s1.5,4.6,1.5,7.4V443.4z M1273.6,442.1c0-3-0.5-5.2-1.6-6.8s-2.6-2.3-4.6-2.3c-2,0-3.5,0.8-4.6,2.3s-1.6,3.8-1.6,6.7v1.4
			c0,2.9,0.5,5.2,1.6,6.8s2.6,2.4,4.6,2.4c2,0,3.5-0.8,4.5-2.3s1.6-3.8,1.6-6.7V442.1z"/>
		<path class="st6" d="M1303.5,433.3h-8.7V457h-5.9v-23.7h-8.6v-4.7h23.2V433.3z"/>
		<path class="st6" d="M1324,444.7h-11.2v7.6h13.2v4.7h-19.1v-28.4h19v4.7h-13.2v6.8h11.2V444.7z"/>
		<path class="st6" d="M1339.9,446.6h-4.7V457h-5.9v-28.4h10.6c3.4,0,6,0.7,7.8,2.2s2.7,3.6,2.7,6.3c0,1.9-0.4,3.6-1.3,4.9
			s-2.1,2.3-3.8,3.1l6.2,11.6v0.3h-6.3L1339.9,446.6z M1335.2,441.8h4.7c1.5,0,2.6-0.4,3.4-1.1s1.2-1.8,1.2-3.1
			c0-1.3-0.4-2.4-1.1-3.2s-1.9-1.2-3.5-1.2h-4.7V441.8z"/>
	</g>
	<g class="st14">
		<path class="st8" d="M1012.3,506.7l5.7-30.4h8.8l-9.5,42.7h-8.8l-6.9-28.5l-6.9,28.5h-8.8l-9.5-42.7h8.8l5.8,30.3l7-30.3h7.4
			L1012.3,506.7z"/>
		<path class="st8" d="M1040.8,519h-8.8v-42.7h8.8V519z"/>
		<path class="st8" d="M1083.7,519h-8.8l-17.1-28.1V519h-8.8v-42.7h8.8l17.1,28.1v-28.1h8.8V519z"/>
		<path class="st8" d="M1123.5,483.5h-13.1V519h-8.8v-35.5h-12.9v-7.1h34.7V483.5z"/>
		<path class="st8" d="M1154.1,500.5h-16.9v11.4h19.8v7.1h-28.6v-42.7h28.5v7.1h-19.7v10.2h16.9V500.5z"/>
		<path class="st8" d="M1178,503.4h-7V519h-8.8v-42.7h15.8c5,0,8.9,1.1,11.7,3.4s4.1,5.4,4.1,9.5c0,2.9-0.6,5.3-1.9,7.3
			s-3.2,3.5-5.7,4.6l9.2,17.4v0.4h-9.4L1178,503.4z M1171,496.3h7.1c2.2,0,3.9-0.6,5.1-1.7s1.8-2.7,1.8-4.6c0-2-0.6-3.6-1.7-4.7
			s-2.9-1.7-5.3-1.7h-7.1V496.3z"/>
		<path class="st8" d="M1231.2,483.5h-13.1V519h-8.8v-35.5h-12.9v-7.1h34.7V483.5z"/>
		<path class="st8" d="M1270.9,519h-8.8v-18.3H1245V519h-8.8v-42.7h8.8v17.3h17.1v-17.3h8.8V519z"/>
		<path class="st8" d="M1310.8,476.3v28.1c0,4.7-1.5,8.4-4.4,11.1s-6.9,4.1-12,4.1c-5,0-8.9-1.3-11.9-4s-4.4-6.3-4.5-10.9v-28.4h8.8
			v28.2c0,2.8,0.7,4.8,2,6.1s3.2,1.9,5.6,1.9c4.9,0,7.5-2.6,7.5-7.8v-28.4H1310.8z"/>
		<path class="st8" d="M1333.8,503.4h-7V519h-8.8v-42.7h15.8c5,0,8.9,1.1,11.7,3.4s4.1,5.4,4.1,9.5c0,2.9-0.6,5.3-1.9,7.3
			s-3.2,3.5-5.7,4.6l9.2,17.4v0.4h-9.4L1333.8,503.4z M1326.8,496.3h7.1c2.2,0,3.9-0.6,5.1-1.7s1.8-2.7,1.8-4.6c0-2-0.6-3.6-1.7-4.7
			s-2.9-1.7-5.3-1.7h-7.1V496.3z"/>
	</g>
</g>
</svg>
